<mxfile host="app.diagrams.net" modified="2022-01-09T11:23:32.294Z" agent="5.0 (Windows NT 10.0; Win64; x64) AppleWebKit/537.36 (KHTML, like Gecko) Chrome/97.0.4692.71 Safari/537.36" etag="CEijTFC9C0-ah4HIMo0d" version="16.2.4" type="github">
  <diagram id="jdWP0tC4QQMbXCkPWQ-U" name="Page-1">
    <mxGraphModel dx="868" dy="433" grid="1" gridSize="10" guides="1" tooltips="1" connect="1" arrows="1" fold="1" page="1" pageScale="1" pageWidth="850" pageHeight="1100" math="0" shadow="0">
      <root>
        <mxCell id="0" />
        <mxCell id="1" parent="0" />
        <mxCell id="a1CQlkczLETUnOtIJAqG-1" value="" style="rounded=0;html=1;jettySize=auto;orthogonalLoop=1;fontSize=11;endArrow=classic;endFill=1;endSize=8;strokeWidth=1;shadow=0;labelBackgroundColor=none;edgeStyle=orthogonalEdgeStyle;entryX=0;entryY=0.385;entryDx=0;entryDy=0;entryPerimeter=0;startArrow=classic;startFill=1;" edge="1" parent="1" target="a1CQlkczLETUnOtIJAqG-3">
          <mxGeometry relative="1" as="geometry">
            <mxPoint x="361" y="218" as="sourcePoint" />
          </mxGeometry>
        </mxCell>
        <mxCell id="a1CQlkczLETUnOtIJAqG-2" value="" style="rounded=1;whiteSpace=wrap;html=1;fontSize=12;glass=0;strokeWidth=1;shadow=0;" vertex="1" parent="1">
          <mxGeometry x="325" y="215" height="10" as="geometry" />
        </mxCell>
        <mxCell id="a1CQlkczLETUnOtIJAqG-3" value="API Server" style="aspect=fixed;perimeter=ellipsePerimeter;html=1;align=center;shadow=0;dashed=0;spacingTop=3;image;image=img/lib/active_directory/web_server.svg;" vertex="1" parent="1">
          <mxGeometry x="535" y="170" width="100" height="125" as="geometry" />
        </mxCell>
        <mxCell id="a1CQlkczLETUnOtIJAqG-4" value="" style="verticalLabelPosition=bottom;verticalAlign=top;html=1;shadow=0;dashed=0;strokeWidth=1;shape=mxgraph.android.phone2;strokeColor=#c0c0c0;" vertex="1" parent="1">
          <mxGeometry x="295" y="175" width="60" height="120" as="geometry" />
        </mxCell>
        <mxCell id="a1CQlkczLETUnOtIJAqG-5" value="Asterisk Server" style="aspect=fixed;perimeter=ellipsePerimeter;html=1;align=center;shadow=0;dashed=0;spacingTop=3;image;image=img/lib/active_directory/web_server.svg;" vertex="1" parent="1">
          <mxGeometry x="535" y="445" width="100" height="125" as="geometry" />
        </mxCell>
        <mxCell id="a1CQlkczLETUnOtIJAqG-6" value="" style="rounded=0;html=1;jettySize=auto;orthogonalLoop=1;fontSize=11;endArrow=classic;endFill=1;endSize=8;strokeWidth=1;shadow=0;labelBackgroundColor=none;edgeStyle=orthogonalEdgeStyle;startArrow=classic;startFill=1;" edge="1" parent="1">
          <mxGeometry relative="1" as="geometry">
            <mxPoint x="575" y="325" as="sourcePoint" />
            <mxPoint x="575" y="445" as="targetPoint" />
            <Array as="points">
              <mxPoint x="575" y="325" />
              <mxPoint x="575" y="385" />
              <mxPoint x="545" y="385" />
            </Array>
          </mxGeometry>
        </mxCell>
        <mxCell id="a1CQlkczLETUnOtIJAqG-7" value="Client" style="text;html=1;align=center;verticalAlign=middle;resizable=0;points=[];autosize=1;strokeColor=none;fillColor=none;" vertex="1" parent="1">
          <mxGeometry x="299" y="300" width="50" height="20" as="geometry" />
        </mxCell>
        <mxCell id="a1CQlkczLETUnOtIJAqG-8" value="" style="endArrow=classic;startArrow=classic;html=1;rounded=0;endFill=1;" edge="1" parent="1">
          <mxGeometry width="50" height="50" relative="1" as="geometry">
            <mxPoint x="365" y="235" as="sourcePoint" />
            <mxPoint x="555" y="445" as="targetPoint" />
          </mxGeometry>
        </mxCell>
        <mxCell id="a1CQlkczLETUnOtIJAqG-9" value="&lt;ul style=&quot;font-size: 29px&quot;&gt;&lt;li&gt;&lt;span&gt;signup&lt;/span&gt;&lt;br&gt;&lt;/li&gt;&lt;li&gt;&lt;span&gt;verify&lt;/span&gt;&lt;br&gt;&lt;/li&gt;&lt;li&gt;&lt;span&gt;login&lt;/span&gt;&lt;br&gt;&lt;/li&gt;&lt;li&gt;&lt;span&gt;profile&lt;/span&gt;&lt;br&gt;&lt;/li&gt;&lt;/ul&gt;" style="text;html=1;align=left;verticalAlign=middle;resizable=0;points=[];autosize=1;strokeColor=none;fillColor=none;fontSize=29;" vertex="1" parent="1">
          <mxGeometry x="290" y="370" width="140" height="200" as="geometry" />
        </mxCell>
      </root>
    </mxGraphModel>
  </diagram>
</mxfile>
